<svg width="54" height="74" viewBox="0 0 54 74" fill="none" xmlns="http://www.w3.org/2000/svg">
<g filter="url(#filter0_d)">
<rect x="21.8496" y="17.9008" width="29" height="29" rx="1" transform="rotate(16.5 21.8496 17.9008)" fill="#C4C4C4"/>
<rect x="21.9171" y="18.0251" width="28.8" height="28.8" rx="0.9" transform="rotate(16.5 21.9171 18.0251)" stroke="#979797" stroke-width="0.2"/>
</g>
<g filter="url(#filter1_d)">
<rect x="14.7031" y="23.0931" width="8" height="17" rx="1" transform="rotate(34 14.7031 23.0931)" fill="#C4C4C4"/>
<rect x="14.6761" y="22.9543" width="8.2" height="17.2" rx="1.1" transform="rotate(34 14.6761 22.9543)" stroke="#979797" stroke-width="0.2"/>
</g>
<path d="M34.5968 20.6342C34.7537 20.1047 35.3101 19.8026 35.8397 19.9594L39.675 21.0955C40.2045 21.2523 40.5066 21.8088 40.3498 22.3383L40.0657 23.2971L34.3128 21.5931L34.5968 20.6342Z" fill="#C4C4C4"/>
<g filter="url(#filter2_d)">
<rect x="17.2715" y="50.962" width="19" height="5" rx="2.5" transform="rotate(16.5 17.2715 50.962)" fill="#00E0FF"/>
</g>
<g filter="url(#filter3_d)">
<rect x="17.2715" y="50.962" width="19" height="5" rx="2.5" transform="rotate(16.5 17.2715 50.962)" fill="#00E0FF"/>
</g>
<g filter="url(#filter4_d)">
<rect x="17.2715" y="50.962" width="19" height="5" rx="2.5" transform="rotate(16.5 17.2715 50.962)" fill="#00E0FF"/>
</g>
<rect x="28.7734" y="26.2099" width="19" height="9" rx="1" transform="rotate(16.5 28.7734 26.2099)" fill="black"/>
<g filter="url(#filter5_d)">
<path d="M40.1019 33.7374C40.4156 32.6783 41.5285 32.0741 42.5876 32.3878V32.3878C43.6466 32.7015 44.2509 33.8144 43.9372 34.8735L43.6532 35.8323L39.8179 34.6962L40.1019 33.7374Z" fill="#00E0FF"/>
</g>
<g filter="url(#filter6_d)">
<path d="M34.3499 32.0333C34.6637 30.9742 35.7765 30.37 36.8356 30.6837V30.6837C37.8947 30.9974 38.4989 32.1103 38.1852 33.1694L37.3332 36.0458L33.4979 34.9098L34.3499 32.0333Z" fill="#00E0FF"/>
</g>
<g filter="url(#filter7_d)">
<path d="M36.1253 19.0006C36.439 17.9415 37.5519 17.3373 38.611 17.651V17.651C39.6701 17.9647 40.2743 19.0776 39.9606 20.1367L39.6766 21.0955L35.8413 19.9594L36.1253 19.0006Z" fill="#FF0010"/>
</g>
<path d="M21.9013 10.9817C27.8076 8.77342 31.4216 13.7862 31.4216 13.7862C31.4216 13.7862 33.4138 7.70171 28.2681 5.35516" stroke="#00E0FF"/>
<defs>
<filter id="filter0_d" x="9.61328" y="17.9008" width="44.0422" height="44.0422" filterUnits="userSpaceOnUse" color-interpolation-filters="sRGB">
<feFlood flood-opacity="0" result="BackgroundImageFix"/>
<feColorMatrix in="SourceAlpha" type="matrix" values="0 0 0 0 0 0 0 0 0 0 0 0 0 0 0 0 0 0 127 0"/>
<feOffset dy="4"/>
<feGaussianBlur stdDeviation="2"/>
<feColorMatrix type="matrix" values="0 0 0 0 0 0 0 0 0 0 0 0 0 0 0 0 0 0 1 0"/>
<feBlend mode="normal" in2="BackgroundImageFix" result="effect1_dropShadow"/>
<feBlend mode="normal" in="SourceGraphic" in2="effect1_dropShadow" result="shape"/>
</filter>
<filter id="filter1_d" x="0.919922" y="22.8154" width="24.6939" height="27.1225" filterUnits="userSpaceOnUse" color-interpolation-filters="sRGB">
<feFlood flood-opacity="0" result="BackgroundImageFix"/>
<feColorMatrix in="SourceAlpha" type="matrix" values="0 0 0 0 0 0 0 0 0 0 0 0 0 0 0 0 0 0 127 0"/>
<feOffset dy="4"/>
<feGaussianBlur stdDeviation="2"/>
<feColorMatrix type="matrix" values="0 0 0 0 0 0 0 0 0 0 0 0 0 0 0 0 0 0 0.6 0"/>
<feBlend mode="normal" in2="BackgroundImageFix" result="effect1_dropShadow"/>
<feBlend mode="normal" in="SourceGraphic" in2="effect1_dropShadow" result="shape"/>
</filter>
<filter id="filter2_d" x="3.85156" y="38.962" width="43.6377" height="34.1904" filterUnits="userSpaceOnUse" color-interpolation-filters="sRGB">
<feFlood flood-opacity="0" result="BackgroundImageFix"/>
<feColorMatrix in="SourceAlpha" type="matrix" values="0 0 0 0 0 0 0 0 0 0 0 0 0 0 0 0 0 0 127 0"/>
<feOffset/>
<feGaussianBlur stdDeviation="6"/>
<feColorMatrix type="matrix" values="0 0 0 0 0 0 0 0 0 0.88 0 0 0 0 1 0 0 0 1 0"/>
<feBlend mode="normal" in2="BackgroundImageFix" result="effect1_dropShadow"/>
<feBlend mode="normal" in="SourceGraphic" in2="effect1_dropShadow" result="shape"/>
</filter>
<filter id="filter3_d" x="3.85156" y="38.962" width="43.6377" height="34.1904" filterUnits="userSpaceOnUse" color-interpolation-filters="sRGB">
<feFlood flood-opacity="0" result="BackgroundImageFix"/>
<feColorMatrix in="SourceAlpha" type="matrix" values="0 0 0 0 0 0 0 0 0 0 0 0 0 0 0 0 0 0 127 0"/>
<feOffset/>
<feGaussianBlur stdDeviation="6"/>
<feColorMatrix type="matrix" values="0 0 0 0 0 0 0 0 0 0.88 0 0 0 0 1 0 0 0 1 0"/>
<feBlend mode="normal" in2="BackgroundImageFix" result="effect1_dropShadow"/>
<feBlend mode="normal" in="SourceGraphic" in2="effect1_dropShadow" result="shape"/>
</filter>
<filter id="filter4_d" x="3.85156" y="38.962" width="43.6377" height="34.1904" filterUnits="userSpaceOnUse" color-interpolation-filters="sRGB">
<feFlood flood-opacity="0" result="BackgroundImageFix"/>
<feColorMatrix in="SourceAlpha" type="matrix" values="0 0 0 0 0 0 0 0 0 0 0 0 0 0 0 0 0 0 127 0"/>
<feOffset/>
<feGaussianBlur stdDeviation="6"/>
<feColorMatrix type="matrix" values="0 0 0 0 0 0 0 0 0 0.88 0 0 0 0 1 0 0 0 1 0"/>
<feBlend mode="normal" in2="BackgroundImageFix" result="effect1_dropShadow"/>
<feBlend mode="normal" in="SourceGraphic" in2="effect1_dropShadow" result="shape"/>
</filter>
<filter id="filter5_d" x="35.8184" y="27.8198" width="12.6873" height="12.0125" filterUnits="userSpaceOnUse" color-interpolation-filters="sRGB">
<feFlood flood-opacity="0" result="BackgroundImageFix"/>
<feColorMatrix in="SourceAlpha" type="matrix" values="0 0 0 0 0 0 0 0 0 0 0 0 0 0 0 0 0 0 127 0"/>
<feOffset/>
<feGaussianBlur stdDeviation="2"/>
<feColorMatrix type="matrix" values="0 0 0 0 0 0 0 0 0 0.88 0 0 0 0 1 0 0 0 1 0"/>
<feBlend mode="normal" in2="BackgroundImageFix" result="effect1_dropShadow"/>
<feBlend mode="normal" in="SourceGraphic" in2="effect1_dropShadow" result="shape"/>
</filter>
<filter id="filter6_d" x="29.498" y="26.1157" width="13.2554" height="13.9302" filterUnits="userSpaceOnUse" color-interpolation-filters="sRGB">
<feFlood flood-opacity="0" result="BackgroundImageFix"/>
<feColorMatrix in="SourceAlpha" type="matrix" values="0 0 0 0 0 0 0 0 0 0 0 0 0 0 0 0 0 0 127 0"/>
<feOffset/>
<feGaussianBlur stdDeviation="2"/>
<feColorMatrix type="matrix" values="0 0 0 0 0 0 0 0 0 0.88 0 0 0 0 1 0 0 0 1 0"/>
<feBlend mode="normal" in2="BackgroundImageFix" result="effect1_dropShadow"/>
<feBlend mode="normal" in="SourceGraphic" in2="effect1_dropShadow" result="shape"/>
</filter>
<filter id="filter7_d" x="31.8418" y="13.083" width="12.6873" height="12.0125" filterUnits="userSpaceOnUse" color-interpolation-filters="sRGB">
<feFlood flood-opacity="0" result="BackgroundImageFix"/>
<feColorMatrix in="SourceAlpha" type="matrix" values="0 0 0 0 0 0 0 0 0 0 0 0 0 0 0 0 0 0 127 0"/>
<feOffset/>
<feGaussianBlur stdDeviation="2"/>
<feColorMatrix type="matrix" values="0 0 0 0 1 0 0 0 0 0 0 0 0 0 0 0 0 0 1 0"/>
<feBlend mode="normal" in2="BackgroundImageFix" result="effect1_dropShadow"/>
<feBlend mode="normal" in="SourceGraphic" in2="effect1_dropShadow" result="shape"/>
</filter>
</defs>
</svg>
